<?xml version="1.0" encoding="utf-8"?>
<!-- Generator: Adobe Illustrator 16.0.0, SVG Export Plug-In . SVG Version: 6.00 Build 0)  -->
<!DOCTYPE svg PUBLIC "-//W3C//DTD SVG 1.1//EN" "http://www.w3.org/Graphics/SVG/1.1/DTD/svg11.dtd">
<svg version="1.1" id="Layer_1" xmlns="http://www.w3.org/2000/svg" xmlns:xlink="http://www.w3.org/1999/xlink" x="0px" y="0px"
	 width="41.667px" height="41.76px" viewBox="0 0 41.667 41.76" enable-background="new 0 0 41.667 41.76" xml:space="preserve">
<g>
	<path fill-rule="evenodd" clip-rule="evenodd" fill="#FFCCFD" d="M20.567,6.123c7.644,0,13.841,6.196,13.841,13.84
		c0,7.645-6.197,13.841-13.841,13.841c-7.644,0-13.84-6.196-13.84-13.841C6.727,12.319,12.923,6.123,20.567,6.123L20.567,6.123z"/>
	<path fill="#EC008C" d="M16.753,3.29c-0.787,0.174-1.578,0.407-2.33,0.695l0.171,0.448c0.737-0.279,1.496-0.505,2.265-0.676
		L16.753,3.29L16.753,3.29z M37.134,16.167l-0.488,0.016c-0.152-0.647-0.344-1.292-0.57-1.914l0.449-0.167
		C36.771,14.773,36.976,15.468,37.134,16.167L37.134,16.167z M11.794,5.249c-0.681,0.4-1.39,0.882-2,1.383l0.302,0.373
		c0.59-0.486,1.285-0.956,1.944-1.343L11.794,5.249L11.794,5.249z M7.683,8.643c-0.542,0.607-1.029,1.254-1.479,1.93l0.402,0.263
		C7.04,10.181,7.519,9.547,8.042,8.96L7.683,8.643L7.683,8.643z M4.812,13.136C4.478,13.914,4.241,14.621,4,15.43l0.464,0.124
		c0.17-0.717,0.497-1.547,0.788-2.227L4.812,13.136L4.812,13.136z M35.292,11.458c-0.395-0.689-0.863-1.395-1.359-2.016
		l-0.377,0.297c0.486,0.629,0.926,1.269,1.322,1.959L35.292,11.458L35.292,11.458z M31.947,7.307
		c-0.609-0.549-1.234-1.039-1.912-1.501l-0.268,0.398c0.66,0.449,1.266,0.926,1.859,1.459L31.947,7.307L31.947,7.307z M27.488,4.384
		c-0.74-0.335-1.502-0.612-2.283-0.839l-0.131,0.462c0.736,0.2,1.523,0.5,2.217,0.815L27.488,4.384L27.488,4.384z"/>
	<path fill="#EC008C" d="M22.361,3.047c-0.803-0.059-1.627-0.064-2.431-0.004l0.035,0.479c0.786-0.056,1.577-0.053,2.362,0.004
		L22.361,3.047L22.361,3.047z"/>
	<path fill-rule="evenodd" clip-rule="evenodd" fill="#4900A3" d="M9.185,29.304v4.701c0,1.069,0.241,2.044,0.954,2.756
		c1.106,1.106,3.303,1.375,4.627,0.474c0.438-0.299,0.756-0.663,1.054-1.087c0.495-0.704,1.131-2.298,1.201-3.136
		c0.268,0.007,0.189-0.076,0.426,0.515c0.09,0.226,0.178,0.462,0.287,0.705l1.137,2.781c0.421,1.015,1.298,1.123,1.87,0.659
		c0.165-0.134,0.018-0.084,0.277-0.141c0.142-0.031,1.384,0.022,1.31-0.896l-0.383-2.279c-0.055-0.274-0.119-0.52-0.119-0.822
		c1.115-0.59,0.545-2.172-0.418-2.193c-0.006-0.331-0.366-1.699-0.468-2.091c-0.21-0.804-0.471-1.148-1.516-1.148
		c-0.679,0-0.317,0.217-0.797-0.194c-0.834-0.714-2.45,0.136-2.703,0.194c-0.244-0.461-1.19-2.492-1.449-2.782
		c-0.834-0.939-2.76-0.296-3.649,0.4C9.721,26.585,9.185,27.851,9.185,29.304L9.185,29.304z"/>
	<path fill-rule="evenodd" clip-rule="evenodd" fill="#4900A3" d="M21.617,16.714v0.052c-0.458,0-0.881,0.121-1.309,0.153
		c-0.483,0.036-0.921,0.014-1.243,0.219c-0.469,0.299-0.145,0.786,0.006,0.921c0.57,0.511,1.633,0.371,2.495,0.327
		c0.23-0.012,0.217-0.048,0.469-0.054c0.627-0.016,1.195-0.051,1.881-0.051l-0.404,0.118c-0.809,0.155-2.677,0.432-2.677,1.449
		c0,0.934,1.662,0.151,2.455,0.156c0.365,0.002,0.732,0.001,1.098,0.001c0.021,0.257,0.221,0.472,0.377,0.615
		c0.467,0.434,1.658,0.695,2.303,0.78c1.652,0.218,4.211,1.4,5.51,0.107c0.502-0.499,0.744-0.838,0.744-1.66
		c0-0.685-0.275-1.187-0.686-1.614c-0.008-0.008-0.018-0.019-0.025-0.026c-0.008-0.008-0.018-0.019-0.025-0.026
		c-0.594-0.572-4.16-2.789-5.182-3.229c-1.748-0.752-1.695-0.273-3.443-0.684c-1.191-0.28-1.729-0.39-2.86-0.163
		c-0.537,0.108-2.163,0.436-2.49,0.854c-0.299,0.384,0.059,0.894,0.353,1.066c0.497,0.291,0.993,0.186,1.247,0.216l0.383,0.244
		C20.856,16.657,21.275,16.714,21.617,16.714L21.617,16.714z"/>
	<path fill-rule="evenodd" clip-rule="evenodd" fill="#FCA4F9" d="M16.119,32.794c-0.273-0.035-0.648-0.094-0.921-0.157
		c-0.225-0.053-0.179-0.045-0.276-0.243l-0.88-1.724c-0.159,0.155-0.38,0.668-0.481,0.921c-0.385,0.97-0.1,0.946-0.458,0.958
		c-0.124-0.2,0.003-0.221-0.021-0.487c0.03-0.417,0.09-1.053,0.084-1.506c-0.006-0.537,0.074-0.961,0.021-1.515
		c-0.018-0.22-0.085-0.104-0.015-0.344c0.129-0.022,0.16-0.008,0.221,0.026c0.107,0.316,1.068,2.124,1.304,2.587
		c0.691,1.358,0.031,0.926,2.525,1.397c1.103,0.208,2.218,0.39,3.318,0.591c0.651,0.119,1.169,0.183,1.47-0.312
		c0.332-0.547-0.035-1.129-0.498-1.271c-0.154-0.101-3.799-1.06-4.472-1.231c-0.393-0.101-0.445-0.459-0.796-1.136
		c-0.435-0.84-0.845-1.683-1.284-2.53c-0.527-1.019-0.639-1.873-2.19-1.609c-1.142,0.194-1.871,0.783-2.404,1.408
		c-0.657,0.771-0.861,1.725-0.856,2.998c0.003,1.061-0.095,4.773,0.133,5.655c0.083,0.323,0.251,0.702,0.439,0.971l0.252,0.24
		c0.376,0.731,2.855,1.547,4.382,0.39c0.887-0.672,1.761-2.407,1.981-3.956L16.119,32.794L16.119,32.794z"/>
	<path fill-rule="evenodd" clip-rule="evenodd" fill="#4900A3" d="M14.513,23.818c0,1.12,0.223,1.822,0.979,2.573
		c1.548,1.539,4.191,1.102,5.204-0.883c1.075-2.106-0.362-4.643-2.896-4.771c-0.113-0.006-0.566,0.054-0.698,0.08
		c-0.576,0.119-1.156,0.424-1.584,0.819C15.057,22.063,14.513,22.951,14.513,23.818L14.513,23.818z"/>
	<path fill-rule="evenodd" clip-rule="evenodd" fill="#FCA4F9" d="M19.351,33.359l-1.744-0.308c0.073,0.268,1.627,4.126,1.753,4.254
		c0.101,0.103,0.033,0.044,0.112,0.076c0.145,0.185,0.329,0.241,0.579,0.236c1.347-0.025,0.574-1.974,0.346-2.813
		c-0.104-0.385-0.278-0.951-0.339-1.335L19.351,33.359L19.351,33.359z"/>
	<path fill-rule="evenodd" clip-rule="evenodd" fill="#FFFFFF" d="M15.864,26.259c0.172,0.242,0.585,0.447,0.879,0.554
		c2.831,1.019,5.145-2.247,3.402-4.552c-0.142-0.188-0.207-0.292-0.386-0.375c-0.022-0.042-0.003-0.02-0.053-0.08
		c-0.019-0.023-0.064-0.072-0.099-0.103c-1.059-0.924-2.987-0.839-4.015,0.323c-0.804,0.907-1.065,2.228-0.421,3.431
		C15.332,25.755,15.636,26.188,15.864,26.259L15.864,26.259z"/>
	<path fill-rule="evenodd" clip-rule="evenodd" fill="#FCA4F9" d="M17.419,27.974c-0.562,0.073-0.864,0.239-1.291,0.426
		c0.084,0.252,0.277,0.595,0.392,0.832c0.516,1.072,0.349,0.903,1.263,1.14c0.275,0.071,0.729,0.25,1.001,0.223
		c0.146,0.104,0.539,0.185,0.711,0.215c-0.059-0.566-0.355-1.47-0.563-1.954C18.667,28.235,18.314,27.822,17.419,27.974
		L17.419,27.974z"/>
	<path fill-rule="evenodd" clip-rule="evenodd" fill="#BDA2F1" d="M24.595,19.787c0.084,1.223,2.387,1.246,3.313,1.449
		c0.422,0.093,0.848,0.231,1.279,0.339c3.951,0.98,3.941-1.837,3.742-2.059c0.057-0.964-1.471-1.805-2.227-2.275
		c-0.936-0.582-1.818-1.162-2.842-1.705c-1.303-0.692-2.068-0.846-3.789-0.769c-0.732,0.033-3.355,0.224-3.58,0.998
		c-0.247,1.139,2.455,0.338,4.224,0.67c0.711,0.133,1.309,0.418,1.83,0.73c0.627,0.376,1.258,1.001,1.48,1.104
		c0.129,0.254,0.5,0.651-0.014,0.871C27.271,19.458,24.693,18.696,24.595,19.787L24.595,19.787z"/>
	<path fill-rule="evenodd" clip-rule="evenodd" fill="#BDA2F1" d="M25.724,18.858c0.492-0.021,2.053,0.148,2.318-0.106
		c-0.066-0.443-2.102-1.889-3.186-2.028c-0.746-0.277-3.023,0.292-4.259,0.436c-0.367,0.043-1.254,0.014-1.416,0.257
		c-0.276,0.414,0.491,0.644,0.866,0.671c0.904,0.064,4.547-0.442,4.647,0.142c-0.041,0.19-0.123,0.197-0.352,0.27
		c-0.158,0.051-0.363,0.108-0.533,0.148c-0.58,0.137-2.865,0.434-2.674,1.319c0.44,0.097,1.038-0.06,1.467-0.178
		c1.074-0.297,1.531,0.162,1.762-0.224C24.671,19.051,24.824,18.966,25.724,18.858L25.724,18.858z"/>
	<path fill-rule="evenodd" clip-rule="evenodd" fill="#FCA4F9" d="M21.044,33.695l-0.688-0.11c0.104,0.578,0.312,1.216,0.465,1.792
		c0.17,0.641,0.432,1.204,0.252,1.868l0.37-0.043c0.846-0.159,0.525-0.836,0.402-1.596c-0.104-0.644-0.236-1.307-0.314-1.937
		L21.044,33.695L21.044,33.695z"/>
	<path fill-rule="evenodd" clip-rule="evenodd" fill="#BDA2F1" d="M20.313,15.46c0.183-0.112,0.097-0.197,0.578-0.414
		c0.619-0.279,1.927-0.476,2.603-0.547c-1.277-0.398-2.917-0.092-4.17,0.391c-0.24,0.092-0.395,0.124-0.422,0.261
		c-0.28,0.242,0.123,0.577,0.285,0.652c0.314,0.146,0.682,0.14,1.047,0.129L20.313,15.46L20.313,15.46z"/>
	<path fill-rule="evenodd" clip-rule="evenodd" fill="#FCA4F9" d="M19.916,28.436l-0.79-0.017c0.004,0.205,0.309,0.856,0.395,1.154
		c0.125,0.433,0.19,0.88,0.311,1.297c0.168,0.104,0.513,0.211,0.732,0.194c0.135,0.105,0.375,0.152,0.546,0.179
		c-0.085-0.514-0.262-1.115-0.39-1.618C20.551,28.964,20.574,28.645,19.916,28.436L19.916,28.436z"/>
	<path fill-rule="evenodd" clip-rule="evenodd" fill="#FCA4F9" d="M13.082,32.062c0.085-0.093,0.435-1.035,0.722-1.539
		c0.155-0.272-0.044-0.471-0.187-0.743c-0.107-0.206-0.264-0.592-0.429-0.738c0.053,0.554-0.027,0.978-0.021,1.515
		C13.172,31.009,13.112,31.645,13.082,32.062L13.082,32.062z"/>
</g>
</svg>
