<?xml version="1.0" encoding="utf-8"?>
<!-- Generator: Adobe Illustrator 16.0.0, SVG Export Plug-In . SVG Version: 6.00 Build 0)  -->
<!DOCTYPE svg PUBLIC "-//W3C//DTD SVG 1.1//EN" "http://www.w3.org/Graphics/SVG/1.1/DTD/svg11.dtd">
<svg version="1.1" id="Layer_1" xmlns="http://www.w3.org/2000/svg" xmlns:xlink="http://www.w3.org/1999/xlink" x="0px" y="0px"
	 width="41.667px" height="41.76px" viewBox="0 0 41.667 41.76" enable-background="new 0 0 41.667 41.76" xml:space="preserve">
<g>
	<path fill-rule="evenodd" clip-rule="evenodd" fill="#FFCCFD" d="M21.375,5.919c7.644,0,13.84,6.196,13.84,13.84
		c0,7.644-6.196,13.84-13.84,13.84s-13.84-6.196-13.84-13.84C7.534,12.116,13.73,5.919,21.375,5.919L21.375,5.919z"/>
	
		<path fill-rule="evenodd" clip-rule="evenodd" fill="#BDA2F1" stroke="#4900A3" stroke-width="0.216" stroke-miterlimit="22.9256" d="
		M10.932,24.6c0.286-0.45,2.714-1.792,3.401-2.036c0.284,0.525,0.349,2.183,0.64,2.814c0.165,0.357,1.397,1.288,1.821,1.656
		l2.833,2.39c0.44,0.305,1.013,0.229,1.346-0.084c0.278-0.262,0.443-0.813,0.178-1.283c-0.205-0.364-3.116-2.679-3.741-3.223
		c-0.492-0.428-0.539-0.286-0.675-1.081c-0.082-0.478-0.195-0.943-0.292-1.436c-0.139-0.705-0.272-0.885,0.261-1.193l6.891,5.593
		c0.717,0.528,1.77,0.09,1.72-0.852c-0.039-0.723-1.05-1.289-1.498-1.667c-2.231-1.888-4.626-3.703-6.891-5.609
		c-1.537-1.293-2.486-1.288-4.602-0.437c-1.576,0.633-2.871,1.388-3.92,2.325c-0.813,0.727-2.761,2.08-1.882,4.019
		c0.731,1.614,3.184,3.27,4.724,4.609l2.54,2.127c0.475,0.402,1.106,2.732,1.329,3.42c0.253,0.783,0.526,1.567,0.771,2.313
		c0.294,0.896,0.454,1.596,1.242,1.926c0.933,0.39,1.771-0.182,2.081-0.794c0.397-0.786-0.112-1.881-0.361-2.591
		c-0.547-1.556-1.006-3.149-1.574-4.679c-0.477-1.285-0.248-1.133-1.166-1.917L10.932,24.6L10.932,24.6z"/>
	
		<path fill-rule="evenodd" clip-rule="evenodd" fill="#FCA4F9" stroke="#4900A3" stroke-width="0.216" stroke-miterlimit="22.9256" d="
		M30.472,29.659c-0.128,0.247-0.199,0.207-0.306,0.473c0.815,0.057,1.518-0.139,1.956,0.479c0.457,0.645,0.087,1.438-0.446,1.688
		c-0.469,0.221-1.633,0.167-2.24,0.201c-1.369,0.076-0.966,0.043-1.739,0.783c-0.274-0.096-0.578-0.286-0.882-0.445
		c-0.481-0.251-0.849-0.32-1.004-0.42c-0.542-0.347-1.255-0.803-1.909-0.936c-0.895,1.195-1.938,6.446-1.088,8.047
		c0.785,0.097,3.735-0.676,4.47-0.945c1.926-0.706,1.54-1.291,2.606-2.931c1.996-3.071,3.333-2.263,4.328-3.98
		c0.449-0.774,0.409-1.364,0.125-2.183c-0.442,0.152-0.687,0.431-1.282,0.552c-1.536,0.313-3.014-0.475-3.578-1.935
		c-0.199-0.517-0.14-1.266-0.274-1.546l-2.349-3.271c-0.242-0.343-0.497-0.77-1.104-0.633c-0.435,0.099-0.799,0.595-0.59,1.143
		c0.119,0.311,2.657,3.723,3.091,4.348C28.8,28.93,29.954,29.074,30.472,29.659L30.472,29.659z"/>
	
		<path fill-rule="evenodd" clip-rule="evenodd" fill="#BDA2F1" stroke="#4900A3" stroke-width="0.216" stroke-miterlimit="22.9256" d="
		M7.447,38.655c1-0.024,1.276-0.624,1.668-1.236c0.777-1.214,1.521-2.416,2.313-3.624c0.977-1.49,1.01-1.42,0.644-3.293
		c-0.124-0.632-1.454-1.507-2.242-2.192c-0.346-0.301-1.313-1.158-1.677-1.354c0.058,0.84,0.317,2.009,0.474,2.884
		c0.322,1.811,0.505,1.514-0.241,2.652C5.125,37.589,6.432,38.68,7.447,38.655L7.447,38.655z"/>
	
		<path fill-rule="evenodd" clip-rule="evenodd" fill="#FFFFFF" stroke="#4900A3" stroke-width="0.216" stroke-miterlimit="22.9256" d="
		M19.513,14.069c-1.374,0.404-2.609,1.71-2.1,3.639c0.339,1.283,1.859,2.569,3.623,2.033C24.904,18.565,23.023,13.037,19.513,14.069
		L19.513,14.069z"/>
	
		<path fill-rule="evenodd" clip-rule="evenodd" fill="#FFFFFF" stroke="#4900A3" stroke-width="0.216" stroke-miterlimit="22.9256" d="
		M31.881,24.245c-1.407,0.32-2.574,1.52-2.242,3.29c0.25,1.34,1.628,2.594,3.307,2.219C36.73,28.908,35.275,23.473,31.881,24.245
		L31.881,24.245z"/>
	
		<path fill-rule="evenodd" clip-rule="evenodd" fill="#FCA4F9" stroke="#4900A3" stroke-width="0.216" stroke-miterlimit="22.9256" d="
		M17.982,31.875c0.032,0.325,1.51,4.697,1.649,4.896c0.376-0.086,0.948-0.424,1.304-0.347c0.389,0.084,0.858,0.346,1.315,0.442
		c0.064-1.09,0.248-2.184,0.498-3.222c0.42-1.744,1.036-2.114,0.621-2.659c-0.758-0.995-1.62-0.543-2.637-0.144
		C20.004,31.127,18.581,31.531,17.982,31.875L17.982,31.875z"/>
	
		<path fill-rule="evenodd" clip-rule="evenodd" fill="#FCA4F9" stroke="#4900A3" stroke-width="0.216" stroke-miterlimit="22.9256" d="
		M23.125,27.75c-1.288,0.649,0.126,1.728,0.458,2.07c0.608,0.627,1.167,1.163,1.783,1.776c0.946,0.941,0.87,0.733,2.83,0.64
		c0.62-0.029,2.998-0.024,3.363-0.213c0.326-0.169,0.603-0.628,0.37-1.136c-0.223-0.484-0.646-0.469-1.308-0.447
		c-1.116,0.037-2.274,0.116-3.402,0.146c-0.69,0.018-1.169-0.744-1.993-1.54C24.453,28.299,23.854,27.382,23.125,27.75L23.125,27.75
		z"/>
	
		<path fill-rule="evenodd" clip-rule="evenodd" fill="#FCA4F9" stroke="#4900A3" stroke-width="0.216" stroke-miterlimit="22.9256" d="
		M37.502,30.203c-0.176-1.25-0.829-2.379-2.058-2.452l-0.336,0.797c0.479,0.475,0.558,0.319,0.742,1.578
		c0.19,1.295,0.202,2.485,1.462,3.128C38.647,33.18,37.513,30.277,37.502,30.203L37.502,30.203z"/>
	
		<path fill-rule="evenodd" clip-rule="evenodd" fill="#FCA4F9" stroke="#4900A3" stroke-width="0.216" stroke-miterlimit="22.9256" d="
		M15.918,38.129l-0.78-2.448c-0.811,0.233-1.657,0.599-2.444,0.887c-0.825,0.301-1.824,0.604-1.503,1.852
		c0.262,1.023,1.339,1.012,2.267,0.654C14.25,38.769,15.217,38.496,15.918,38.129L15.918,38.129z"/>
	<path fill-rule="evenodd" clip-rule="evenodd" fill="#4900A3" d="M34.745,22.125c-0.146-0.338-0.494-1.288-0.802-1.428
		c-0.357,0.24-0.332,0.914-0.554,1.28c-0.361-0.184-1.412-1.529-1.455-1.06l-0.054,0.197c-0.007,0.09,0.022,0.268,0.04,0.361
		c0.149,0.76,0.13,1.518,0.55,1.483c0.185-0.4-0.058-0.878-0.101-1.304c0.408,0.243,0.773,0.924,1.242,0.937
		c0.163-0.285,0.213-0.832,0.41-1.066c0.246,0.4,0.319,0.902,0.632,1.167c0.499-0.089,0.833-0.959,1.285-1.2l-0.107,1.657
		c0.445,0.102,1.071-0.207,1.559-0.261c-0.183,0.54-0.797,1.02-0.819,1.466c0.371,0.291,1.03,0.174,1.392,0.396l-1.575,0.847
		c0.032,0.54,0.367,0.468,0.602,1.008c-0.331-0.005-0.788-0.115-1.06,0.044c-0.009,0.434,0.286,0.313,0.748,0.35
		c0.334,0.027,0.695,0.086,1.019,0.007c0.086-0.348-0.114-0.43-0.31-0.638c-0.173-0.184-0.341-0.338-0.444-0.589
		c0.291-0.207,0.7-0.399,1.025-0.562c0.83-0.415,0.861-0.33,0.892-0.731l-1.714-0.337c0.031-0.514,1.096-1.247,0.96-1.826
		c-0.41-0.043-1.362,0.314-1.845,0.407c0.017-0.497,0.268-1.755,0.054-2.089c-0.325-0.002-0.407,0.193-0.821,0.674
		C35.294,21.547,34.969,21.969,34.745,22.125L34.745,22.125z"/>
	<path fill-rule="evenodd" clip-rule="evenodd" fill="#F3F3F3" d="M31.19,27.188c-1.041,0.325-0.961,0.901-0.432,0.886
		c0.859-0.024,0.89-0.257,1.884,0.045C34.19,28.589,32.929,26.645,31.19,27.188L31.19,27.188z"/>
	<path fill-rule="evenodd" clip-rule="evenodd" fill="#F3F3F3" d="M20.944,33.617l1.341,0.497l-0.508-0.818l-0.68,0.21
		c-0.017,0.01-0.039,0.024-0.053,0.034L20.944,33.617L20.944,33.617z"/>
	<path fill="#EC008C" d="M17.561,3.086c-0.787,0.175-1.578,0.407-2.331,0.696l0.172,0.448c0.737-0.279,1.496-0.505,2.265-0.676
		L17.561,3.086L17.561,3.086z M37.941,15.963l-0.489,0.016c-0.15-0.648-0.342-1.292-0.57-1.915l0.45-0.167
		C37.579,14.57,37.783,15.264,37.941,15.963L37.941,15.963z M12.602,5.045c-0.681,0.4-1.39,0.882-2,1.383l0.302,0.373
		c0.59-0.486,1.285-0.956,1.943-1.343L12.602,5.045L12.602,5.045z M8.49,8.439c-0.542,0.607-1.029,1.254-1.479,1.93l0.402,0.263
		C7.847,9.977,8.326,9.344,8.85,8.757L8.49,8.439L8.49,8.439z M5.619,12.933c-0.333,0.778-0.571,1.484-0.812,2.294l0.463,0.124
		c0.17-0.717,0.497-1.546,0.788-2.226L5.619,12.933L5.619,12.933z M36.101,11.255c-0.396-0.689-0.863-1.395-1.359-2.016
		l-0.376,0.297c0.486,0.629,0.925,1.269,1.321,1.959L36.101,11.255L36.101,11.255z M32.755,7.104
		c-0.611-0.549-1.234-1.039-1.913-1.501L30.574,6c0.66,0.449,1.266,0.926,1.859,1.459L32.755,7.104L32.755,7.104z M28.295,4.18
		c-0.741-0.335-1.502-0.612-2.283-0.839l-0.13,0.462c0.735,0.2,1.523,0.5,2.217,0.815L28.295,4.18L28.295,4.18z"/>
	<path fill="#EC008C" d="M23.169,2.843c-0.803-0.059-1.627-0.064-2.431-0.004l0.035,0.479c0.786-0.056,1.578-0.053,2.363,0.004
		L23.169,2.843L23.169,2.843z"/>
</g>
</svg>
