<?xml version="1.0" encoding="utf-8"?>
<!-- Generator: Adobe Illustrator 16.0.0, SVG Export Plug-In . SVG Version: 6.00 Build 0)  -->
<!DOCTYPE svg PUBLIC "-//W3C//DTD SVG 1.1//EN" "http://www.w3.org/Graphics/SVG/1.1/DTD/svg11.dtd">
<svg version="1.1" id="Layer_1" xmlns="http://www.w3.org/2000/svg" xmlns:xlink="http://www.w3.org/1999/xlink" x="0px" y="0px"
	 width="41.667px" height="41.76px" viewBox="0 0 41.667 41.76" enable-background="new 0 0 41.667 41.76" xml:space="preserve">
<g>
	<path fill-rule="evenodd" clip-rule="evenodd" fill="#FFCCFD" d="M19.947,5.919c7.644,0,13.84,6.196,13.84,13.84
		c0,7.644-6.196,13.84-13.84,13.84s-13.84-6.196-13.84-13.84C6.106,12.116,12.303,5.919,19.947,5.919L19.947,5.919z"/>
	
		<path fill-rule="evenodd" clip-rule="evenodd" fill="#FFFFFF" stroke="#4900A3" stroke-width="0.216" stroke-miterlimit="22.9256" d="
		M10.916,20.693c0,0-1.953,1.486-2.042,3.041c-0.09,1.553,0.555,4.134,2.764,4.804c2.209,0.67,3.75-0.409,4.891-1.582
		c1.14-1.173,0.801-3.108,0.801-3.108s-1.884,0.488-3.043-0.313C13.126,22.733,11.097,21.565,10.916,20.693L10.916,20.693z"/>
	
		<path fill-rule="evenodd" clip-rule="evenodd" fill="#BDA2F1" stroke="#4900A3" stroke-width="0.216" stroke-miterlimit="22.9256" d="
		M20.556,38.38c0.509-0.317,0.832-0.341,1.023-0.996c0.149-0.513,0.106-5.14-0.056-5.784c-0.483-1.922-2.38-3.556-4.85-3.185
		c-0.315,1.214-0.377,1.837-1.122,2.533c-2.204,2.061-5.947,0.771-6.068-2.573c-1.537,0.007-2.278,0.059-3.292,0.845
		c-0.63,0.488-1.312,1.256-1.594,2.38c-0.246,0.975-0.118,2.805-0.118,3.93c0,2.203-0.16,2.073,1.085,2.85H20.556L20.556,38.38z"/>
	
		<path fill-rule="evenodd" clip-rule="evenodd" fill="#BDA2F1" stroke="#4900A3" stroke-width="0.216" stroke-miterlimit="22.9256" d="
		M12.46,17.194c-0.508,0.217-1.168,0.229-1.843,0.554c-0.616,0.296-1.134,0.651-1.533,1.018c-0.711,0.653-1.524,1.983-1.698,3.396
		c-0.345,2.803,1.489,5.597,3.849,6.127c-0.055-0.043-0.112-0.084-0.206-0.148c-0.105-0.071-0.161-0.103-0.257-0.166
		c-1.097-0.73-1.921-1.909-2-3.362c-0.11-2.007,1.025-3.196,2.075-3.91c0.182,0.208,0.311,0.463,0.485,0.708
		c0.18,0.254,0.319,0.454,0.548,0.675c0.314,0.303,0.981,0.812,1.477,1.067c1.084,0.559,2.224,0.928,3.48,0.7
		c0.574-0.104,0.276-0.157,0.422,0.004c0.399,0.677-0.226,2.172-0.509,2.674c-0.368,0.649-0.929,1.13-1.527,1.523l-0.338,0.236
		c3.604-0.83,5.452-6.367,2.204-9.478c-1.438-1.376-2.627-1.277-3.429-1.62H12.46L12.46,17.194z"/>
	
		<path fill-rule="evenodd" clip-rule="evenodd" fill="#FCA4F9" stroke="#4900A3" stroke-width="0.2607" stroke-miterlimit="22.9256" d="
		M12.665,27.667c0,0,1.5-0.453,1.104-1.16c-0.396-0.707,0-1.132,0.538-1.386c0.537-0.255,1.216-0.651,1.301-0.424
		s0.283,1.16,0.254,1.443c-0.028,0.283,0.114,0.623-0.565,0.934c-0.679,0.311-0.142,0.368-0.849,0.594
		C13.74,27.893,13.343,28.487,12.665,27.667L12.665,27.667z"/>
	<path fill="none" stroke="#4900A3" stroke-width="0.2338" stroke-miterlimit="22.9256" d="M27.816,21.875
		c0.704-0.325,1.525-0.045,1.834,0.624s-0.013,1.476-0.717,1.8c-0.705,0.325-1.526,0.045-1.835-0.624S27.111,22.2,27.816,21.875
		L27.816,21.875z"/>
	
		<path fill-rule="evenodd" clip-rule="evenodd" fill="#FFFFFF" stroke="#4900A3" stroke-width="0.2339" stroke-miterlimit="22.9256" d="
		M27.69,25.532l1.123,2.636c0,0-0.739,5.58-0.89,7.355s0.616,2.854,1.899,2.91c0.915,0.04,3.218-0.889,4.464-1.426l0.006,0.013
		c0,0,0.156-0.072,0.412-0.194c0.26-0.115,0.415-0.187,0.415-0.187l-0.006-0.013c1.218-0.599,3.419-1.745,3.984-2.466
		c0.792-1.012,0.469-2.296-0.978-3.335c-1.447-1.039-6.169-4.102-6.169-4.102l-1.274-2.567l-1.084,0.489l-0.003-0.006l-0.412,0.194
		l-0.416,0.188l0.004,0.006L27.69,25.532L27.69,25.532z"/>
	
		<polygon fill-rule="evenodd" clip-rule="evenodd" fill="#FCA4F9" stroke="#4900A3" stroke-width="0.2339" stroke-miterlimit="22.9256" points="
		25.834,24.324 30.966,21.959 31.754,23.67 26.622,26.034 25.834,24.324 	"/>
	
		<path fill-rule="evenodd" clip-rule="evenodd" fill="#FCA4F9" stroke="#4900A3" stroke-width="0.2339" stroke-miterlimit="22.9256" d="
		M31.726,30.001c0.51-0.235,1.113-0.012,1.349,0.498c0.234,0.51,0.012,1.114-0.498,1.349s-1.113,0.012-1.349-0.498
		C30.993,30.84,31.216,30.236,31.726,30.001L31.726,30.001z"/>
	
		<path fill-rule="evenodd" clip-rule="evenodd" fill="#FCA4F9" stroke="#4900A3" stroke-width="0.2339" stroke-miterlimit="22.9256" d="
		M30.651,34.314c0.525-0.242,1.146-0.012,1.389,0.513c0.241,0.525,0.012,1.146-0.513,1.388s-1.146,0.012-1.388-0.513
		C29.897,35.177,30.127,34.556,30.651,34.314L30.651,34.314z"/>
	
		<path fill-rule="evenodd" clip-rule="evenodd" fill="#FCA4F9" stroke="#4900A3" stroke-width="0.2339" stroke-miterlimit="22.9256" d="
		M35.001,32.968c0.54-0.249,1.18-0.013,1.428,0.527c0.249,0.54,0.013,1.179-0.526,1.427c-0.54,0.249-1.179,0.013-1.428-0.527
		S34.462,33.217,35.001,32.968L35.001,32.968z"/>
	
		<path fill-rule="evenodd" clip-rule="evenodd" fill="#FFFFFF" stroke="#4900A3" stroke-width="0.216" stroke-miterlimit="22.9256" d="
		M23.084,15.285c-0.12,0.333,0.017,0.859,0.086,1.21c0.035,0.177,0.271,0.944,0.225,1.075c-0.217,0.604-0.63-0.935-1.153-1.124
		c-0.429-0.154-0.636,0.464-0.017,1.015c0.175,0.156,0.768,0.482,0.705,0.745c-0.142,0.203-0.441,0.27-0.671,0.272
		c-0.865,0.011-2.17-0.647-2.445,0.117c-0.105,0.292,0.351,0.83,1.295,0.687c0.494-0.075,1.066-0.356,1.588-0.168
		c0.103,0.037,0.125,0.112,0.101,0.168c-0.059,0.132-0.639,0.205-0.114,0.395c-0.099,0.152-0.296,0.257-0.325,0.431
		c-0.043,0.261,0.111,0.389,0.331,0.468c0.245,0.088,0.352-0.081,0.527-0.208c0.239-0.172,0.345-0.229,0.55-0.16
		c-0.044,0.382-0.506,1.366-0.327,2.272c0.122,0.619,0.543,0.803,0.745,0.24c0.196-0.544-0.634-1.125-0.393-1.794l0.105-0.293
		c0.124-0.346,0.468-0.26,0.631-0.02c0.119,0.176,0.238,0.528,0.294,0.73c0.168,0.618,0.353,1.292,1.063,1.375
		c0.45-0.443,0.266-1.055-0.037-1.441c-0.265-0.338-0.802-0.518-0.748-0.968c0.119-0.232,0.415-0.102,0.621-0.153
		c0.051-0.186-0.279-0.951,0.438-0.692c0.123,0.044,0.808,0.643,0.98,0.164c0.255-0.708-1.046-0.504-0.815-1.144
		c0.169-0.471,1.304-0.385,1.699-0.373c1.305,0.04,0.209-1.606-1.414-0.718c-0.379,0.207-0.712,0.984-1.179,0.815
		c-0.564-0.203-0.103-0.781-0.554-0.955c-0.113,0.175-0.168,0.321-0.306,0.456c-0.408-0.045-0.397-0.132-0.406-0.434
		c-0.003-0.091-0.006-0.332-0.22-0.094c-0.098,0.108-0.066,0.141-0.169,0.242c-0.479-0.311,0.107-0.56,0.323-1.159
		C24.524,15.089,23.345,14.561,23.084,15.285L23.084,15.285z"/>
	
		<path fill-rule="evenodd" clip-rule="evenodd" fill="#FFFFFF" stroke="#4900A3" stroke-width="0.216" stroke-miterlimit="22.9256" d="
		M21.537,21.151c-0.188,0.523,0.591,0.721,0.874-0.063C22.55,20.701,21.72,20.647,21.537,21.151L21.537,21.151z"/>
	
		<path fill-rule="evenodd" clip-rule="evenodd" fill="#FFFFFF" stroke="#4900A3" stroke-width="0.216" stroke-miterlimit="22.9256" d="
		M26.888,21.378c0.624,0.225,0.102-0.38,0.091-0.39c-0.095-0.079-0.198-0.118-0.334-0.19c-0.127-0.067-0.236-0.143-0.333-0.199
		C25.81,20.307,26.426,21.212,26.888,21.378L26.888,21.378z"/>
	
		<path fill-rule="evenodd" clip-rule="evenodd" fill="#FFFFFF" stroke="#4900A3" stroke-width="0.216" stroke-miterlimit="22.9256" d="
		M24.966,15.962c-0.069,0.191-0.071,0.494,0.013,0.619c0.13-0.039,0.311-0.245,0.405-0.401c0.148-0.245,0.063-0.368-0.073-0.519
		C25.167,15.698,25.022,15.805,24.966,15.962L24.966,15.962z"/>
	
		<path fill-rule="evenodd" clip-rule="evenodd" fill="#FFFFFF" stroke="#4900A3" stroke-width="0.216" stroke-miterlimit="22.9256" d="
		M25.493,17.381c-0.103,0.158-0.136,0.091-0.093,0.391c0.249,0.09,0.326,0.144,0.425-0.13
		C25.902,17.426,25.643,17.377,25.493,17.381L25.493,17.381z"/>
	<path fill="#EC008C" d="M16.133,3.086c-0.786,0.175-1.577,0.407-2.33,0.696l0.171,0.448c0.737-0.279,1.496-0.505,2.265-0.676
		L16.133,3.086L16.133,3.086z M36.514,15.963l-0.489,0.016c-0.15-0.648-0.342-1.292-0.569-1.915l0.45-0.167
		C36.151,14.57,36.355,15.264,36.514,15.963L36.514,15.963z M11.174,5.045c-0.681,0.4-1.39,0.882-2,1.383l0.302,0.373
		c0.59-0.486,1.285-0.956,1.943-1.343L11.174,5.045L11.174,5.045z M7.063,8.439c-0.542,0.607-1.029,1.254-1.479,1.93l0.402,0.263
		c0.435-0.655,0.914-1.289,1.438-1.875L7.063,8.439L7.063,8.439z M4.191,12.933c-0.333,0.778-0.571,1.484-0.812,2.294l0.463,0.124
		c0.17-0.717,0.497-1.546,0.788-2.226L4.191,12.933L4.191,12.933z M34.673,11.255c-0.396-0.689-0.863-1.395-1.359-2.016
		l-0.377,0.297c0.486,0.629,0.925,1.269,1.321,1.959L34.673,11.255L34.673,11.255z M31.327,7.104
		c-0.61-0.549-1.234-1.039-1.913-1.501L29.146,6c0.66,0.449,1.266,0.926,1.858,1.459L31.327,7.104L31.327,7.104z M26.867,4.18
		c-0.74-0.335-1.502-0.612-2.283-0.839l-0.13,0.462c0.735,0.2,1.522,0.5,2.217,0.815L26.867,4.18L26.867,4.18z"/>
	<path fill="#EC008C" d="M21.741,2.843c-0.803-0.059-1.627-0.064-2.431-0.004l0.035,0.479c0.786-0.056,1.578-0.053,2.363,0.004
		L21.741,2.843L21.741,2.843z"/>
</g>
</svg>
