<?xml version="1.0" encoding="utf-8"?>
<!-- Generator: Adobe Illustrator 16.0.0, SVG Export Plug-In . SVG Version: 6.00 Build 0)  -->
<!DOCTYPE svg PUBLIC "-//W3C//DTD SVG 1.1//EN" "http://www.w3.org/Graphics/SVG/1.1/DTD/svg11.dtd">
<svg version="1.1" id="Layer_1" xmlns="http://www.w3.org/2000/svg" xmlns:xlink="http://www.w3.org/1999/xlink" x="0px" y="0px"
	 width="41.667px" height="41.76px" viewBox="0 0 41.667 41.76" enable-background="new 0 0 41.667 41.76" xml:space="preserve">
<g>
	<path fill-rule="evenodd" clip-rule="evenodd" fill="#FFCCFD" d="M20.833,6.661c7.645,0,13.841,6.196,13.841,13.84
		c0,7.644-6.196,13.84-13.841,13.84c-7.644,0-13.84-6.196-13.84-13.84C6.993,12.857,13.189,6.661,20.833,6.661L20.833,6.661z"/>
	
		<path fill-rule="evenodd" clip-rule="evenodd" fill="#BDA2F1" stroke="#4900A3" stroke-width="0.216" stroke-miterlimit="22.9256" d="
		M27.049,19.189c-0.117-0.223-0.388-0.499-0.273-0.747c0.107-0.232,0.375-0.494,0.296-0.772c-0.191-0.065-0.478-0.043-0.715-0.043
		c-0.229-0.001-0.569-0.058-0.61,0.134c-0.065,0.307,0.516,0.603,0.297,0.989c-0.19,0.336-0.455,0.634-0.368,1.096
		c0.058,0.305,0.22,0.983,0.206,1.24c-0.044-0.275-0.512-1.356-0.647-1.719c-0.203-0.54-0.401-1.16-0.645-1.698
		c-0.552-0.111-1.666-0.011-2.121,0.178c-0.481,0.2-0.983,0.648-1.217,1.056c-0.379,0.66-0.38,1.057-0.384,1.93
		c-0.004,0.754-0.008,1.51-0.011,2.264c-0.376,0.477-3.781,2.767-0.721,3.395c0.227-0.179,0.381-0.305,0.606-0.482l1.846-1.465
		c0.191-0.137,0.356-0.348,0.428-0.653c0.077-0.331,0.046-2.642,0.045-3.287c-0.001-0.394,0.001-0.703,0.393-0.5
		c0.095,0.39,0.031,16.834,0.031,17.186c0,0.611-0.092,1.538,0.167,2.027c0.223,0.419,0.755,0.798,1.414,0.664
		c1.359-0.279,1.058-1.859,1.058-3.235c0-2.835-0.067-5.754,0.003-8.581l0.561,0.004c0.05,1.484,0.004,3.048,0.004,4.542
		c0,1.496,0,2.993,0,4.489c0,0.591-0.087,1.628,0.152,2.098c0.583,1.142,2.443,0.879,2.48-0.646c0.016-0.631,0.048-1.625-0.013-2.23
		c-0.45-0.199-0.839-0.74-0.863-1.396c-0.028-0.738-0.003-1.526-0.003-2.269c0-0.955-0.183-2.461,0.305-3.095l0.568-0.532
		c0.056-0.133-0.005-6.543-0.009-7.662c0-0.375-0.178-1.815,0.356-1.454c0.15,0.102,0.099,0.375,0.099,0.547l0.037,7.572
		c0.006,0.446,0.085,0.698,0.334,0.938c0.191,0.183,0.153,0.128,0.15,0.465c-0.002,0.206,0.005,0.412-0.007,0.617
		c-0.338,0.056-0.486,0.044-0.594,0.305c-0.082,0.199-0.043,2.352-0.043,2.662c0,2.453-0.243,2.317,1.249,2.317
		c0.593,0,1.272,0.162,1.313-0.503c0.042-0.686,0.002-2.782,0.002-3.627c0-0.703,0.138-1.104-0.633-1.143
		c-0.149-1.479,0.267-0.901,0.4-1.67c0.075-0.428-0.004-5.525-0.009-6.209c-0.005-0.954,0.125-2.034-0.175-2.938
		c-0.088-0.266-0.222-0.488-0.372-0.672c-0.82-0.997-1.486-1.03-3.111-1.028c-0.154,0.042-0.327,0.673-0.379,0.808
		c-0.189,0.492-0.846,2.301-0.98,2.512c0.003-0.25,0.123-0.698,0.179-0.951C27.218,19.59,27.252,19.575,27.049,19.189L27.049,19.189
		z"/>
	
		<path fill-rule="evenodd" clip-rule="evenodd" fill="#FFFFFF" stroke="#4900A3" stroke-width="0.216" stroke-miterlimit="22.9256" d="
		M24.191,15.074c0.093,0.587,0.462,1.045,0.875,1.381c0.416,0.338,1.09,0.543,1.78,0.419c1.104-0.197,2.043-1.273,1.808-2.653
		c-0.187-1.096-1.269-2.035-2.652-1.806C24.906,12.598,23.971,13.677,24.191,15.074L24.191,15.074z"/>
	
		<path fill-rule="evenodd" clip-rule="evenodd" fill="#FCA4F9" stroke="#4900A3" stroke-width="0.216" stroke-miterlimit="22.9256" d="
		M19.081,21.314c-0.474-2.505-0.57-2.199-3.244-2.205c-0.69-0.001-1,0.097-1.315,0.497c-0.307,0.388-0.617,2.368-0.691,2.955
		c0.23-0.036,0.377-0.27,0.514-0.411c0.159-0.164,0.285-0.297,0.446-0.46c0.159-0.162,0.282-0.302,0.453-0.455
		c0.138-0.123,0.324-0.333,0.426-0.378c-0.19,0.14-1.363,2.541-1.571,2.65c-0.393,0.206-3.373-0.027-3.931,0.497
		c-0.467,0.439-0.321,1.25,0.15,1.529c0.454,0.269,1.362,0.095,1.936,0.06c0.678-0.042,1.418-0.068,2.083-0.137
		c0.905-0.094,1.005-0.118,1.387-0.791l1.207-2.103c0.123-0.217,0.242-0.493,0.407-0.682c-0.015,0.263-0.79,3.091-0.92,3.521
		c-0.433,1.425-1.931,0.829-3.317,1.127c-0.212,1.094-0.403,2.18-0.597,3.248c-0.091,0.499-0.349,1.206,0.099,1.5
		c0.269,0.177,1.394,0.05,1.809,0.094c0.066,0.719,0.01,1.725,0.01,2.475c0,1.111-0.054,4.113,0.006,4.99
		c0.012,0.182,0.055,0.343,0.119,0.483h2.23c0.076-0.162,0.124-0.353,0.132-0.573c0.043-1.275-0.066-6.784,0.018-7.386l0.718,0.006
		c0.057,0.418,0.015,5.747,0.015,6.652c0,0.758-0.033,1.109-0.08,1.301h1.297c0.037-0.073,0.065-0.148,0.086-0.224
		c0.178-0.679-0.07-6.616,0.063-7.727c0.687-0.044,1.65,0.204,1.767-0.472c0.041-0.244-0.563-3.293-0.653-3.798
		C16.873,8.679,21.638,34.873,19.081,21.314L19.081,21.314z"/>
	
		<path fill-rule="evenodd" clip-rule="evenodd" fill="#FFFFFF" stroke="#4900A3" stroke-width="0.216" stroke-miterlimit="22.9256" d="
		M14.456,16.57c0.182,0.994,1.201,1.935,2.5,1.701c1.045-0.188,1.947-1.212,1.718-2.504c-0.184-1.037-1.232-1.944-2.504-1.71
		C15.145,14.245,14.216,15.261,14.456,16.57L14.456,16.57z"/>
	
		<path fill-rule="evenodd" clip-rule="evenodd" fill="#BDA2F1" stroke="#4900A3" stroke-width="0.216" stroke-miterlimit="22.9256" d="
		M7.798,18.645c-0.11,0.255-0.109,1.116-0.002,1.379c0.272,0.063,3.231,0.082,3.531,0.016l-0.004-1.409
		C11.049,18.57,8.021,18.586,7.798,18.645L7.798,18.645z"/>
	
		<path fill-rule="evenodd" clip-rule="evenodd" fill="#BDA2F1" stroke="#4900A3" stroke-width="0.216" stroke-miterlimit="22.9256" d="
		M8.597,22.219c0.558,0.045,1.868,0.004,2.57,0.01c0.349,0.002,0.485,0.014,0.485-0.354c0-0.779,0.109-1.103-0.351-1.103
		c-0.562,0-2.283-0.027-2.718,0.015L8.597,22.219L8.597,22.219z"/>
	
		<path fill-rule="evenodd" clip-rule="evenodd" fill="#FCA4F9" stroke="#4900A3" stroke-width="0.216" stroke-miterlimit="22.9256" d="
		M22.912,14.711c0.208-0.359-0.118-0.67-0.521-0.6c-0.53,0.091-2.85,0.576-2.996,0.803c-0.229,0.353,0.065,0.688,0.516,0.617
		c0.322-0.051,0.737-0.167,1.048-0.237C21.364,15.203,22.747,14.997,22.912,14.711L22.912,14.711z"/>
	
		<path fill-rule="evenodd" clip-rule="evenodd" fill="#FFFFFF" stroke="#4900A3" stroke-width="0.216" stroke-miterlimit="22.9256" d="
		M20.821,12.996c0.166-0.28-0.067-0.656-0.4-0.633c-0.202,0.014-0.518,0.347-0.635,0.448l-1.11,1.075
		c-0.174,0.276,0.036,0.637,0.378,0.618C19.35,14.489,20.821,12.996,20.821,12.996L20.821,12.996z"/>
	
		<path fill-rule="evenodd" clip-rule="evenodd" fill="#BDA2F1" stroke="#4900A3" stroke-width="0.216" stroke-miterlimit="22.9256" d="
		M7.786,20.805c-0.162-0.053-0.392-0.051-0.568-0.034c-0.201,0.02-0.257,0.084-0.27,0.285c-0.018,0.271-0.014,0.875,0.039,1.102
		c0.18,0.079,0.534,0.103,0.798,0.049L7.786,20.805L7.786,20.805z"/>
	
		<path fill-rule="evenodd" clip-rule="evenodd" fill="#BDA2F1" stroke="#4900A3" stroke-width="0.216" stroke-miterlimit="22.9256" d="
		M8.175,22.866c-0.725-0.033-0.628,0.069-0.628,0.731c0,0.689-0.103,0.738,0.632,0.713L8.175,22.866L8.175,22.866z"/>
	
		<path fill-rule="evenodd" clip-rule="evenodd" fill="#BDA2F1" stroke="#4900A3" stroke-width="0.216" stroke-miterlimit="22.9256" d="
		M11.931,20.06c0.635,0.02,0.504-0.14,0.504-0.724c0-0.592,0.129-0.742-0.515-0.724L11.931,20.06L11.931,20.06z"/>
	
		<path fill-rule="evenodd" clip-rule="evenodd" fill="#BDA2F1" stroke="#4900A3" stroke-width="0.216" stroke-miterlimit="22.9256" d="
		M8.994,24.051c0.193-0.297,0.189-0.404,0.451-0.679c0.421-0.441,0.48-0.288,0.653-0.512l-1.113,0.002L8.994,24.051L8.994,24.051z"
		/>
	<path fill="#EC008C" d="M17.019,3.828c-0.787,0.175-1.577,0.407-2.33,0.696l0.172,0.448c0.736-0.279,1.495-0.505,2.264-0.676
		L17.019,3.828L17.019,3.828z M37.4,16.705l-0.489,0.016c-0.15-0.648-0.342-1.292-0.569-1.915l0.45-0.167
		C37.038,15.312,37.242,16.006,37.4,16.705L37.4,16.705z M12.06,5.787c-0.682,0.4-1.39,0.882-2,1.383l0.302,0.373
		c0.59-0.486,1.284-0.956,1.943-1.343L12.06,5.787L12.06,5.787z M7.949,9.181c-0.542,0.607-1.029,1.254-1.479,1.93l0.401,0.263
		c0.435-0.655,0.914-1.289,1.438-1.875L7.949,9.181L7.949,9.181z M5.078,13.674c-0.334,0.778-0.571,1.484-0.812,2.294l0.463,0.124
		c0.171-0.717,0.497-1.546,0.788-2.226L5.078,13.674L5.078,13.674z M35.559,11.997c-0.396-0.689-0.863-1.395-1.359-2.016
		l-0.377,0.297c0.485,0.629,0.925,1.269,1.321,1.959L35.559,11.997L35.559,11.997z M32.213,7.845
		c-0.611-0.549-1.234-1.039-1.913-1.501l-0.268,0.398c0.659,0.449,1.266,0.926,1.858,1.459L32.213,7.845L32.213,7.845z
		 M27.753,4.922c-0.74-0.335-1.502-0.612-2.283-0.839l-0.13,0.462c0.734,0.2,1.522,0.5,2.217,0.815L27.753,4.922L27.753,4.922z"/>
	<path fill="#EC008C" d="M22.627,3.585C21.824,3.526,21,3.521,20.196,3.581l0.035,0.479c0.786-0.056,1.578-0.053,2.363,0.004
		L22.627,3.585L22.627,3.585z"/>
</g>
</svg>
