<?xml version="1.0" encoding="utf-8"?>
<!-- Generator: Adobe Illustrator 16.0.0, SVG Export Plug-In . SVG Version: 6.00 Build 0)  -->
<!DOCTYPE svg PUBLIC "-//W3C//DTD SVG 1.1//EN" "http://www.w3.org/Graphics/SVG/1.1/DTD/svg11.dtd">
<svg version="1.1" id="Layer_1" xmlns="http://www.w3.org/2000/svg" xmlns:xlink="http://www.w3.org/1999/xlink" x="0px" y="0px"
	 width="41.667px" height="41.76px" viewBox="0 0 41.667 41.76" enable-background="new 0 0 41.667 41.76" xml:space="preserve">
<path fill-rule="evenodd" clip-rule="evenodd" fill="#FFCCFD" d="M21.023,6.388c7.644,0,13.84,6.196,13.84,13.84
	c0,7.645-6.196,13.841-13.84,13.841c-7.644,0-13.84-6.196-13.84-13.841C7.183,12.584,13.379,6.388,21.023,6.388L21.023,6.388z"/>
<path fill="#EC008C" d="M17.209,3.554c-0.787,0.175-1.578,0.407-2.33,0.696l0.172,0.448c0.737-0.28,1.496-0.505,2.264-0.676
	L17.209,3.554L17.209,3.554z M37.59,16.432l-0.489,0.016c-0.15-0.647-0.342-1.292-0.57-1.914l0.45-0.166
	C37.228,15.038,37.432,15.732,37.59,16.432L37.59,16.432z M12.25,5.513c-0.681,0.401-1.39,0.882-2,1.384l0.302,0.373
	c0.59-0.486,1.285-0.956,1.944-1.344L12.25,5.513L12.25,5.513z M8.139,8.908c-0.541,0.606-1.029,1.254-1.479,1.93l0.401,0.263
	c0.435-0.655,0.914-1.288,1.438-1.876L8.139,8.908L8.139,8.908z M5.268,13.4c-0.333,0.778-0.571,1.485-0.811,2.294l0.463,0.124
	c0.17-0.717,0.497-1.546,0.788-2.226L5.268,13.4L5.268,13.4z M35.75,11.724c-0.396-0.69-0.863-1.395-1.359-2.017l-0.377,0.297
	c0.486,0.629,0.925,1.27,1.321,1.959L35.75,11.724L35.75,11.724z M32.404,7.572c-0.611-0.55-1.234-1.039-1.913-1.502l-0.268,0.398
	c0.66,0.448,1.266,0.926,1.858,1.459L32.404,7.572L32.404,7.572z M27.944,4.648c-0.741-0.336-1.502-0.612-2.283-0.839l-0.13,0.462
	c0.735,0.2,1.523,0.5,2.217,0.814L27.944,4.648L27.944,4.648z"/>
<path fill="#EC008C" d="M22.818,3.312c-0.803-0.06-1.628-0.064-2.432-0.005l0.036,0.479c0.786-0.056,1.577-0.053,2.363,0.005
	L22.818,3.312L22.818,3.312z"/>
<path fill-rule="evenodd" clip-rule="evenodd" fill="#BDA2F1" stroke="#4900A3" stroke-width="0.216" stroke-miterlimit="22.9256" d="
	M22.27,39.506h0.809c0.979-0.8,0.87-0.617,0.861-2.288l-0.001-9.151c-0.25-0.624,0.068-0.123-0.59-0.412
	c-0.441-0.194-0.239-0.142-0.476-0.313c-0.637-0.461-3.694-0.065-4.445,0.091c-0.037,1.786,1.154,4.906,0.752,6.149
	c-0.591,1.828-1.972,4.708-0.946,5.533c0.389,0.313,0.936,0.374,1.431,0.069c0.631-0.389,1.213-2.78,1.552-3.842
	c1.164-3.632,0.494-2.273,0.069-5.226l0.051-0.607c0.384,0.616,0.443,1.763,0.619,2.51c0.538,2.293-0.511,1.355-0.536,5.334
	C21.412,38.829,21.383,38.857,22.27,39.506L22.27,39.506z"/>
<path fill-rule="evenodd" clip-rule="evenodd" fill="#FCA4F9" stroke="#4900A3" stroke-width="0.216" stroke-miterlimit="22.9256" d="
	M18.67,25.224c2.003-0.011,3.216-0.462,5.264,0.087l0.05-2c0.025,0.053,0.648,0.895,0.768,1.07c0.327,0.479,0.493,0.688,1.254,0.534
	c0.661-0.577,0.424-0.988,0.188-1.951c-1.936-7.895-5.198-6.209-4.541-4.793c0.396,0.854,0.987-0.426,2.277,2.871
	c0.057,0.145,0.138,0.305,0.158,0.484c0.035,0.321,0.041,0.164-0.058,0.32c-0.394-0.525-0.325-1.135-0.837-1.639
	c-0.236,0.954-1.022,1.723-2.124,1.845c-1.44,0.161-1.921-0.588-2.558-1.26c-0.877,0.358-1.317,2.007-1.495,2.817
	c-0.257,1.169-0.72,2.982,0.402,3.387c1.02,0.367,3.976-0.214,4.995-0.109c0.734,0.075,0.317,0.074,0.685,0.367
	c0.578,0.46,0.911,0.233,1.297-0.147c0.581-2.778-4.236-1.585-6.005-1.614c0.023-0.719,0.107-1.825,0.524-2.239
	C19.034,23.514,18.712,24.711,18.67,25.224L18.67,25.224z"/>
<path fill-rule="evenodd" clip-rule="evenodd" fill="#FFFFFF" stroke="#4900A3" stroke-width="0.216" stroke-miterlimit="22.9256" d="
	M21.371,17.293c-3.739-0.276-3.607,4.032-1.034,4.5c1.919,0.349,3.898-2.145,1.775-2.97C21.35,18.527,21.239,18.207,21.371,17.293
	L21.371,17.293z"/>
<path fill-rule="evenodd" clip-rule="evenodd" fill="#EC008C" d="M25.426,26.087c0.306,0.77,0.297,0.565,0,1.396
	c0.04-0.022,0.582,0.06,0.447-0.86c-0.014-0.093-0.086-0.309-0.141-0.38C25.563,26.021,25.692,26.143,25.426,26.087L25.426,26.087z"
	/>
<path fill-rule="evenodd" clip-rule="evenodd" fill="#EC008C" d="M16.922,21.561c0.177-0.393-0.112-0.33,0.044-0.831
	c0.094-0.3,0.286-0.294,0.478-0.717C16.781,20.312,16.427,20.785,16.922,21.561L16.922,21.561z"/>
<path fill-rule="evenodd" clip-rule="evenodd" fill="#EC008C" d="M24.978,26.249c0.133,0.476,0.086,0.668-0.061,1.107
	c0.227-0.153,0.469-0.232,0.445-0.63C25.333,26.233,25.167,26.346,24.978,26.249L24.978,26.249z"/>
<path fill-rule="evenodd" clip-rule="evenodd" fill="#EC008C" d="M17.751,20.343c-0.608,0.334-0.554,0.379-0.509,1.098
	L17.751,20.343L17.751,20.343z"/>
<path fill-rule="evenodd" clip-rule="evenodd" fill="#FFFFFF" stroke="#4900A3" stroke-width="0.2421" stroke-miterlimit="22.9256" d="
	M11.171,13.953c1.454-0.582,3.105,0.125,3.688,1.58c0.324,0.809,0.249,1.677-0.131,2.39c0.12,0.099,0.217,0.227,0.278,0.38
	c0.194,0.485-0.042,1.035-0.526,1.229c-0.418,0.167-0.885,0.016-1.13-0.341l-0.07,0.029c-1.455,0.582-3.106-0.125-3.688-1.579
	C9.009,16.187,9.716,14.536,11.171,13.953L11.171,13.953z"/>
<polygon fill-rule="evenodd" clip-rule="evenodd" fill="#FFFFFF" stroke="#4900A3" stroke-width="0.2421" stroke-miterlimit="22.9256" points="
	10.508,16.256 13.239,15.162 13.513,15.846 10.782,16.938 10.508,16.256 "/>
<path fill-rule="evenodd" clip-rule="evenodd" fill="#FFFFFF" stroke="#4900A3" stroke-width="0.2421" stroke-miterlimit="22.9256" d="
	M22.647,9.601c1.363,0.772,1.842,2.503,1.07,3.866c-0.43,0.758-1.155,1.242-1.949,1.391c-0.002,0.154-0.041,0.311-0.123,0.454
	c-0.257,0.454-0.834,0.614-1.289,0.356c-0.392-0.222-0.564-0.681-0.439-1.095l-0.067-0.036c-1.363-0.772-1.842-2.504-1.069-3.867
	C19.553,9.307,21.284,8.828,22.647,9.601L22.647,9.601z"/>
<polygon fill-rule="evenodd" clip-rule="evenodd" fill="#FFFFFF" stroke="#4900A3" stroke-width="0.2421" stroke-miterlimit="22.9256" points="
	20.435,10.521 22.995,11.971 22.632,12.611 20.072,11.161 20.435,10.521 "/>
<path fill-rule="evenodd" clip-rule="evenodd" fill="#FFFFFF" stroke="#4900A3" stroke-width="0.2421" stroke-miterlimit="22.9256" d="
	M32.441,15.347c0.762,1.369,0.271,3.096-1.098,3.858c-0.761,0.424-1.632,0.46-2.387,0.174c-0.082,0.131-0.197,0.243-0.342,0.324
	c-0.456,0.254-1.032,0.09-1.286-0.366c-0.219-0.394-0.128-0.875,0.194-1.164l-0.038-0.065c-0.762-1.369-0.271-3.097,1.098-3.858
	C29.951,13.486,31.679,13.978,32.441,15.347L32.441,15.347z"/>
<polygon fill-rule="evenodd" clip-rule="evenodd" fill="#FFFFFF" stroke="#4900A3" stroke-width="0.2421" stroke-miterlimit="22.9256" points="
	30.073,14.982 31.505,17.552 30.862,17.91 29.431,15.34 30.073,14.982 "/>
<path fill-rule="evenodd" clip-rule="evenodd" fill="#FCA4F9" stroke="#4900A3" stroke-width="0.216" stroke-miterlimit="22.9256" d="
	M26.555,16.649c-0.146,0.274-0.487,0.377-0.761,0.23s-0.377-0.487-0.23-0.761c0.146-0.274,0.487-0.378,0.761-0.23
	C26.598,16.035,26.701,16.375,26.555,16.649L26.555,16.649z"/>
<path fill-rule="evenodd" clip-rule="evenodd" fill="#BDA2F1" stroke="#4900A3" stroke-width="0.216" stroke-miterlimit="22.9256" d="
	M25.121,17.69c-0.086,0.159-0.284,0.22-0.444,0.135c-0.16-0.086-0.22-0.284-0.134-0.444s0.284-0.22,0.444-0.135
	C25.146,17.332,25.206,17.53,25.121,17.69L25.121,17.69z"/>
<path fill-rule="evenodd" clip-rule="evenodd" fill="#FCA4F9" stroke="#4900A3" stroke-width="0.216" stroke-miterlimit="22.9256" d="
	M15.928,18.138c0.147,0.274,0.487,0.377,0.761,0.23c0.274-0.146,0.377-0.487,0.231-0.761s-0.487-0.377-0.761-0.23
	S15.782,17.864,15.928,18.138L15.928,18.138z"/>
<path fill-rule="evenodd" clip-rule="evenodd" fill="#BDA2F1" stroke="#4900A3" stroke-width="0.216" stroke-miterlimit="22.9256" d="
	M17.362,19.179c0.085,0.159,0.284,0.22,0.444,0.135c0.16-0.086,0.22-0.284,0.135-0.444c-0.086-0.159-0.285-0.22-0.444-0.135
	C17.337,18.82,17.277,19.019,17.362,19.179L17.362,19.179z"/>
</svg>
